<svg width="303" height="276" viewBox="0 0 303 276" fill="none" xmlns="http://www.w3.org/2000/svg">
<path d="M237.608 196.968L152.387 86L130.877 113.864L194.59 196.968H237.608Z" fill="#E39D02"/>
<path d="M67 196.968L152.222 86L173.731 113.864L110.018 196.968H67Z" fill="#FFC543"/>
<circle cx="111.874" cy="147.992" r="2.3625" transform="rotate(39.9166 111.874 147.992)" fill="#E39D02"/>
<circle cx="120.009" cy="142.477" r="2.3625" transform="rotate(39.9166 120.009 142.477)" fill="#E39D02"/>
<circle cx="119.122" cy="154.056" r="2.3625" transform="rotate(39.9166 119.122 154.056)" fill="#E39D02"/>
<circle cx="126.391" cy="149.576" r="2.3625" transform="rotate(39.9166 126.391 149.576)" fill="#E39D02"/>
<circle cx="130.12" cy="143.015" r="2.3625" transform="rotate(39.9166 130.12 143.015)" fill="#E39D02"/>
<circle cx="131.304" cy="156.326" r="2.3625" transform="rotate(39.9166 131.304 156.326)" fill="#E39D02"/>
<circle cx="127.457" cy="134.626" r="2.3625" transform="rotate(39.9166 127.457 134.626)" fill="#E39D02"/>
<circle cx="124.553" cy="161.24" r="2.3625" transform="rotate(39.9166 124.553 161.24)" fill="#E39D02"/>
<circle cx="2.3625" cy="2.3625" r="2.3625" transform="matrix(-0.766979 0.641672 0.641672 0.766979 193.149 144.664)" fill="#FFC543"/>
<circle cx="2.3625" cy="2.3625" r="2.3625" transform="matrix(-0.766979 0.641672 0.641672 0.766979 185.014 139.149)" fill="#FFC543"/>
<circle cx="2.3625" cy="2.3625" r="2.3625" transform="matrix(-0.766979 0.641672 0.641672 0.766979 185.901 150.728)" fill="#FFC543"/>
<circle cx="2.3625" cy="2.3625" r="2.3625" transform="matrix(-0.766979 0.641672 0.641672 0.766979 178.633 146.248)" fill="#FFC543"/>
<circle cx="2.3625" cy="2.3625" r="2.3625" transform="matrix(-0.766979 0.641672 0.641672 0.766979 174.904 139.687)" fill="#FFC543"/>
<circle cx="2.3625" cy="2.3625" r="2.3625" transform="matrix(-0.766979 0.641672 0.641672 0.766979 173.72 152.999)" fill="#FFC543"/>
<circle cx="2.3625" cy="2.3625" r="2.3625" transform="matrix(-0.766979 0.641672 0.641672 0.766979 177.567 131.298)" fill="#FFC543"/>
<circle cx="2.3625" cy="2.3625" r="2.3625" transform="matrix(-0.766979 0.641672 0.641672 0.766979 180.47 157.912)" fill="#FFC543"/>
<circle cx="118.469" cy="94.469" r="19.469" fill="#EBE8E1"/>
<circle cx="118.469" cy="94.469" r="11.6814" fill="#1C1C1C"/>
<circle cx="185.531" cy="94.469" r="19.469" fill="#EBE8E1"/>
<circle cx="185.531" cy="94.469" r="11.6814" fill="#1C1C1C"/>
<path d="M139 118C143.256 121.773 154.414 127.055 165 118" stroke="#1C1C1C" stroke-width="6" stroke-linecap="round"/>
</svg>
