<svg width="500" height="500" viewBox="0 0 500 500" fill="none" xmlns="http://www.w3.org/2000/svg">
<rect width="500" height="500" rx="100" fill="#1C1C1C"/>
<path d="M112.533 318.185C118.237 318.185 123.426 319.604 128.101 322.441C132.775 325.238 136.439 329.119 139.093 334.084C141.747 339.009 143.075 344.486 143.075 350.514C143.075 356.542 141.747 362.039 139.093 367.003C136.439 371.928 132.775 375.809 128.101 378.646C123.426 381.444 118.237 382.842 112.533 382.842C108.017 382.842 103.897 381.936 100.174 380.124C96.45 378.311 93.281 375.731 90.6665 372.381V404.355H77V319.663H90.6665V328.587C93.2413 325.278 96.3906 322.717 100.114 320.904C103.877 319.092 108.017 318.185 112.533 318.185ZM96.1331 364.225C99.8171 367.89 104.392 369.722 109.859 369.722C115.326 369.722 119.881 367.89 123.526 364.225C127.17 360.522 128.992 355.951 128.992 350.514C128.992 345.077 127.17 340.506 123.526 336.802C119.881 333.099 115.326 331.247 109.859 331.247C104.392 331.247 99.8171 333.099 96.1331 336.802C92.4887 340.506 90.6665 345.077 90.6665 350.514C90.6665 355.951 92.4887 360.522 96.1331 364.225Z" fill="white"/>
<path d="M204.455 319.663H218.121V381.365H204.455V372.5C198.988 379.395 191.739 382.842 182.707 382.842C176.963 382.842 171.754 381.444 167.08 378.646C162.406 375.809 158.741 371.928 156.087 367.003C153.473 362.078 152.166 356.582 152.166 350.514C152.166 344.446 153.473 338.95 156.087 334.025C158.741 329.1 162.406 325.238 167.08 322.441C171.754 319.604 176.963 318.185 182.707 318.185C191.779 318.185 199.028 321.613 204.455 328.469V319.663ZM185.381 369.722C190.848 369.722 195.384 367.89 198.988 364.225C202.633 360.522 204.455 355.951 204.455 350.514C204.455 345.037 202.633 340.467 198.988 336.802C195.384 333.099 190.848 331.247 185.381 331.247C179.875 331.247 175.28 333.099 171.596 336.802C167.952 340.467 166.129 345.037 166.129 350.514C166.129 355.951 167.952 360.522 171.596 364.225C175.28 367.89 179.875 369.722 185.381 369.722Z" fill="white"/>
<path d="M271.718 331.956H254.189V361.152C254.189 363.989 254.962 366.136 256.506 367.594C258.091 369.013 260.329 369.722 263.221 369.722C265.954 369.722 268.786 369.013 271.718 367.594V380.301C268.351 381.995 264.568 382.842 260.369 382.842C253.833 382.842 248.901 381.129 245.573 377.701C242.246 374.273 240.582 369.486 240.582 363.339V331.956H230.065V319.663H240.582V303.646H254.189V319.663H271.718V331.956Z" fill="white"/>
<path d="M330.662 319.663H344.329V381.365H330.662V372.5C325.195 379.395 317.946 382.842 308.914 382.842C303.171 382.842 297.961 381.444 293.287 378.646C288.613 375.809 284.949 371.928 282.295 367.003C279.68 362.078 278.373 356.582 278.373 350.514C278.373 344.446 279.68 338.95 282.295 334.025C284.949 329.1 288.613 325.238 293.287 322.441C297.961 319.604 303.171 318.185 308.914 318.185C317.986 318.185 325.235 321.613 330.662 328.469V319.663ZM311.588 369.722C317.055 369.722 321.591 367.89 325.195 364.225C328.84 360.522 330.662 355.951 330.662 350.514C330.662 345.037 328.84 340.467 325.195 336.802C321.591 333.099 317.055 331.247 311.588 331.247C306.082 331.247 301.487 333.099 297.803 336.802C294.159 340.467 292.336 345.037 292.336 350.514C292.336 355.951 294.159 360.522 297.803 364.225C301.487 367.89 306.082 369.722 311.588 369.722Z" fill="white"/>
<path d="M409.334 319.663H423V381.365H409.334V372.5C403.867 379.395 396.618 382.842 387.586 382.842C381.842 382.842 376.633 381.444 371.959 378.646C367.284 375.809 363.62 371.928 360.966 367.003C358.352 362.078 357.044 356.582 357.044 350.514C357.044 344.446 358.352 338.95 360.966 334.025C363.62 329.1 367.284 325.238 371.959 322.441C376.633 319.604 381.842 318.185 387.586 318.185C396.657 318.185 403.907 321.613 409.334 328.469V319.663ZM390.26 369.722C395.726 369.722 400.262 367.89 403.867 364.225C407.511 360.522 409.334 355.951 409.334 350.514C409.334 345.037 407.511 340.467 403.867 336.802C400.262 333.099 395.726 331.247 390.26 331.247C384.754 331.247 380.159 333.099 376.474 336.802C372.83 340.467 371.008 345.037 371.008 350.514C371.008 355.951 372.83 360.522 376.474 364.225C380.159 367.89 384.754 369.722 390.26 369.722Z" fill="white"/>
<path d="M380.877 264.759L250.504 95L217.599 137.627L315.067 264.759H380.877Z" fill="#E39D02"/>
<path d="M119.88 264.759L250.254 95L283.159 137.627L185.69 264.759H119.88Z" fill="#FFC543"/>
</svg>
